<svg xmlns="http://www.w3.org/2000/svg" viewBox="0 0 2632 1639">
<path fill="#3CB882" d="M0 0 C0.547 0.155 0.547 0.155 3.312 0.938 C8.532 2.442 13.224 4.606 18.062 7.062 C22 9 22 9 25.438 10.125 C28 11 28 11 29 13 C31.98 14.703 34.984 16.362 38 18 C47.36 23.36 47.36 23.36 51 27 C52.238 27.908 53.475 28.815 54.75 29.75 C58.877 32.906 62.333 36.333 66 40 C67.217 40.846 68.434 41.691 69.688 42.562 C73.206 45.151 74.629 47.375 77 51 C81.065 55.404 85.202 59.402 90 63 C90.33 63.99 90.66 64.98 91 66 C91.99 66.66 92.98 67.32 94 68 C95.389 70.301 96.719 72.638 98 75 C100.154 78.589 102.328 82.149 104.562 85.688 C104.862 86.164 104.862 86.164 106.379 88.574 C108 91 108 91 110 93 C111.011 95.329 112.01 97.663 113 100 C113.495 100.825 113.495 100.825 116 105 C116.474 106.279 116.949 107.558 117.438 108.875 C119 113 119 113 121.062 116.312 C123.567 121.079 124.06 125.714 125 131 C125.639 132.403 126.279 133.805 126.938 135.25 C129.253 140.582 130.177 145.605 131.215 151.297 C132 155 132 155 134.062 160.625 C135.612 164.923 136.419 168.185 137 172.625 C137.76 178.341 139.589 182.741 142 188 C142.52 190.094 142.996 192.2 143.438 194.312 C145.782 205.139 150.614 214.399 156 224 C157.499 226.877 158.895 229.757 160.184 232.734 C163.706 240.804 163.706 240.804 167 243 C171 253.057 171 253.057 171 256 C171.99 256.33 172.98 256.66 174 257 C175.189 259.787 176.366 262.579 177.477 265.398 C179.696 270.644 182.425 275.578 185.145 280.578 C187.186 284.343 189.085 288.17 191 292 C192.328 294.336 193.663 296.669 195 299 C198.279 304.921 201.473 310.796 204.188 317 C205.826 320.617 207.524 322.964 210 326 C211.015 328.327 212.015 330.66 213 333 C214.313 335.013 215.648 337.012 217 339 C218.667 342 220.333 345 222 348 C223.293 350.026 224.63 352.025 226 354 C226.526 354.784 226.526 354.784 229.188 358.75 C234.549 366.378 240.626 373.265 248 379 C251.531 381.895 254.762 384.762 258 388 C262.236 391.201 265.932 392.566 271 394 C271.99 394.99 272.98 395.98 274 397 C290.185 405.054 307.781 406.632 325.572 406.412 C328.656 406.375 331.74 406.371 334.824 406.371 C350.86 406.277 350.86 406.277 359 404 C362.32 403.669 365.618 403.503 368.949 403.344 C372 403 372 403 377 401 C380.533 400.411 384.069 399.992 387.625 399.562 C391 399 391 399 396 397 C398.667 396.333 401.333 395.667 404 395 C404.33 394.67 404.66 394.34 405 394 C405.897 393.845 405.897 393.845 410.438 393.062 C416 392 416 392 418 390 C420.171 389.34 422.363 388.745 424.562 388.188 C430.635 386.525 435.562 384.214 441 381 C442.382 380.484 443.764 379.969 445.188 379.438 C448.944 378.021 451.698 376.248 455 374 C457.329 372.989 459.663 371.99 462 371 C466.666 368.602 470.646 366.305 474.625 362.875 C478 360 478 360 481.309 358.594 C485.091 356.961 488.096 355.022 491.438 352.625 C494.958 350.124 498.404 347.761 502.125 345.562 C506.56 342.63 510.242 339.249 514.121 335.629 C517.782 332.286 521.613 329.191 525.492 326.105 C529.379 322.843 532.71 319.352 535.938 315.438 C539 312 539 312 542.125 310.062 C545.949 307.32 547.048 304.229 549 300 C551.838 295.881 553.489 294.707 558 292 C560.246 289.109 560.246 289.109 562.438 285.75 C564.865 282.117 567.21 278.756 570.062 275.438 C573.559 271.346 576.429 266.982 579.363 262.477 C581 260 581 260 582 259 C583.65 259 585.3 259 587 259 C589 262 589 262 590.312 267.125 C591.738 272.63 594.135 277.078 597 282 C597.691 283.992 598.359 285.992 599 288 C600.316 290.675 601.65 293.342 603 296 C603.474 297.134 603.949 298.269 604.438 299.438 C609.147 310.176 615.527 320.939 623 330 C626.033 333.943 628.773 337.546 631 342 C631.99 342.33 632.98 342.66 634 343 C634.598 343.908 635.196 344.815 635.812 345.75 C638.174 349.258 640.734 351.346 644 354 C644.32 354.412 644.32 354.412 645.938 356.5 C648 359 648 359 651.562 361.5 C655 364 655 364 658 369 C660.34 370.879 660.34 370.879 662.938 372.562 C666.491 374.883 668.924 376.924 672 380 C675.259 382.296 678.619 384.387 682 386.5 C684.426 388.016 686.829 389.569 689.188 391.188 C692 393 692 393 697 395 C698.114 395.639 699.227 396.279 700.375 396.938 C704 399 704 399 707.562 400.5 C711 402 711 402 713.688 403.875 C717.678 406.435 721.803 408.097 726.195 409.852 C728.508 410.799 730.765 411.882 733 413 C734.341 413.165 735.681 413.33 737.062 413.5 C741 414 741 414 744 416 C744.908 416.268 745.815 416.536 746.75 416.812 C750.821 418.3 753.743 420.142 757 423 C756.67 424.65 756.34 426.3 756 428 C753.41 429.555 753.41 429.555 750.062 430.875 C742.713 434.005 736.685 437.882 730.562 443.062 C727.143 445.648 723.436 447.533 719.66 449.551 C715.236 451.961 711.563 454.437 708 458 C707.072 458.454 706.144 458.908 705.188 459.375 C700.339 461.847 696.865 464.868 693.562 469.188 C690.512 472.535 688.289 472.867 684 474 C683.34 475.32 682.68 476.64 682 478 C680.35 478.33 678.7 478.66 677 479 C676.34 480.32 675.68 481.64 675 483 C672.339 485.007 669.671 487.006 667 489 C665.326 490.993 663.658 492.993 662 495 C661.072 495.598 660.144 496.196 659.188 496.812 C656.171 498.883 654.3 500.809 651.938 503.562 C648 508 648 508 643 511 C642.072 512.237 641.144 513.475 640.188 514.75 C636.826 519.232 633.254 522.363 629 526 C622.638 531.951 617.583 537.568 613 545 C610.356 547.359 607.69 549.694 605 552 C603.603 553.956 602.262 555.954 601 558 C600.154 559.011 599.309 560.021 598.438 561.062 C596 564 596 564 593 569 C591.68 570.32 590.36 571.64 589 573 C588.505 573.99 588.01 574.98 587.5 576 C586 579 586 579 582 583 C580.622 584.97 579.292 586.973 578 589 C577.279 590.111 576.559 591.222 575.816 592.367 C573.541 595.909 571.269 599.454 569 603 C568.515 603.753 568.515 603.753 566.062 607.562 C564 611 564 611 562 616 C561.216 616.928 560.433 617.856 559.625 618.812 C556.722 622.338 554.959 625.886 553 630 C552.505 630.825 552.505 630.825 550 635 C544.486 645.298 544.486 645.298 542.875 650.938 C541.872 654.447 540.271 656.178 538 659 C536.969 661.655 535.974 664.324 535 667 C533.228 671.334 531.425 675.655 529.621 679.977 C528 684 528 684 526.91 687.523 C526.61 688.341 526.309 689.158 526 690 C525.34 690 524.68 690 524 690 C523.938 691.114 523.876 692.227 523.812 693.375 C522.84 698.909 520.507 702.987 518 708 C517.293 711.325 516.626 714.659 516 718 C514.674 721.336 513.34 724.669 512 728 C511.196 730.982 510.491 733.978 509.785 736.984 C509.006 739.976 508.031 742.797 506.938 745.688 C505 751 505 751 504.062 755.688 C502.856 760.584 500.738 763.792 498 768 C496.99 770.663 495.992 773.33 495 776 C492.742 780.706 490.375 785.353 488 790 C487.34 791.32 486.68 792.64 486 794 C485.34 794 484.68 794 484 794 C483.732 794.866 483.464 795.733 483.188 796.625 C481.79 800.596 479.761 802.845 477 806 C476.423 806.928 475.845 807.856 475.25 808.812 C472.611 812.551 469.557 815.527 466.289 818.715 C464.294 820.706 462.416 822.814 460.562 824.938 C453.262 833.263 445.62 840.309 436.688 846.871 C434 849 434 849 432 852 C428.685 853.378 425.35 854.709 422 856 C418.809 857.915 415.674 859.928 412.625 862.062 C408.465 864.705 405.65 865.754 401 867 C399.659 867.804 398.319 868.609 396.938 869.438 C391.616 872.199 386.997 873.234 381.137 874.227 C378 875 378 875 374 878 C370.828 878.441 370.828 878.441 367.25 878.562 C363.409 878.702 360.037 878.991 356.301 879.926 C339.395 884.148 319.996 886.134 303 882 C298.57 881.43 294.136 880.939 289.695 880.465 C286 880 286 880 283 879 C279.255 878.804 275.511 878.682 271.762 878.574 C267.501 877.924 265.516 876.398 262 874 C258.633 873.383 258.633 873.383 255.125 873.125 C248.373 872.31 245.346 870.308 240 866 C235.754 863.89 231.456 861.946 227.121 860.027 C223.051 858.025 219.633 855.699 216 853 C214.928 852.443 213.855 851.886 212.75 851.312 C208.337 848.591 204.882 845.323 201.109 841.785 C197.762 838.787 194.267 836.09 190.688 833.375 C185.54 829.392 181.462 825.601 178 820 C178 819.34 178 818.68 178 818 C176.68 817.34 175.36 816.68 174 816 C171.935 813.384 169.945 810.707 168 808 C166.713 806.371 165.421 804.746 164.125 803.125 C161 799 161 799 161 797 C160.01 796.67 159.02 796.34 158 796 C154.559 790.122 151.636 784.276 149 778 C148.01 776.35 147.02 774.7 146 773 C145.526 771.659 145.051 770.319 144.562 768.938 C143 765 143 765 139 761 C138.307 757.672 137.645 754.338 137 751 C135.914 748.061 134.679 745.213 133.43 742.34 C129.908 734.113 126.61 725.736 124.375 717.062 C123 712 123 712 120.938 707.375 C118.959 702.908 118.043 698.759 117 694 C115.689 690.658 114.355 687.325 113 684 C112.505 682.288 112.01 680.576 111.5 678.812 C110.105 674.338 108.339 671.021 106 667 C105.505 665.494 105.01 663.989 104.5 662.438 C103.098 658.291 101.416 655.585 99 652 C98.72 650.944 98.441 649.889 98.152 648.801 C96.849 644.503 94.931 641.162 92.625 637.312 C89.808 632.439 87.405 627.882 85.75 622.5 C84.084 617.263 81.95 613.581 79 609 C78.299 606.677 77.635 604.342 77 602 C75.423 598.291 73.704 594.652 72 591 C70.266 587.047 68.64 583.082 67.062 579.062 C65 574 65 574 62.938 569.938 C61 566 61 566 59.562 561.562 C58 557 58 557 55.5 552.5 C53.008 548.014 51.564 543.879 50 539 C49.02 536.409 48.018 533.826 47 531.25 C46.505 529.997 46.01 528.744 45.5 527.453 C44 524 44 524 41 519 C40.711 518.257 40.711 518.257 39.25 514.5 C37.078 509.191 34.573 504.332 31.793 499.328 C29.533 495.133 27.575 490.82 25.652 486.461 C24 484 24 484 20.879 482.449 C19.929 481.971 18.979 481.493 18 481 C17.272 477.679 16.615 474.343 16 471 C11.512 462.451 5.842 454.842 -1 448 C-1.392 447.092 -1.784 446.185 -2.188 445.25 C-4.662 440.812 -8.115 438.228 -12 435 C-13.32 433.68 -14.64 432.36 -16 431 C-16.392 430.618 -16.392 430.618 -18.375 428.688 C-21 426 -21 426 -23.688 422.625 C-30.96 414.667 -40.829 409.503 -50 404 C-50.474 403.588 -50.474 403.588 -52.875 401.5 C-56.148 398.882 -59.142 397.584 -63 396 C-63.928 395.34 -64.856 394.68 -65.812 394 C-69 392 -69 392 -74.25 390.438 C-79 389 -79 389 -81 386 C-83.981 384.945 -86.985 383.954 -90 383 C-93.005 381.678 -96.005 380.345 -99 379 C-101 378.333 -103 377.666 -105 377 C-106.96 376.191 -108.918 375.378 -110.875 374.562 C-117.424 371.984 -123.912 370.79 -130.859 369.773 C-131.896 369.518 -132.932 369.263 -134 369 C-134.165 368.505 -134.165 368.505 -135 366 C-137.981 364.945 -140.985 363.954 -144 363 C-146.675 361.683 -149.342 360.351 -152 359 C-152.949 358.732 -153.897 358.464 -154.875 358.188 C-158.704 356.732 -161.708 354.468 -165.004 352.07 C-169.728 348.806 -174.71 345.986 -179.68 343.113 C-183 341 -183 341 -187 337 C-187.825 336.505 -187.825 336.505 -192 334 C-193.32 332.68 -194.64 331.36 -196 330 C-196.784 329.237 -197.567 328.474 -198.375 327.688 C-201.407 324.583 -204.176 321.294 -207 318 C-209.544 315.329 -211.946 313.039 -214.938 310.875 C-219.211 306.863 -221.375 302.186 -224 297 C-226.358 292.687 -228.713 288.445 -231.375 284.312 C-239.851 270.387 -245.306 255.941 -248.91 240.082 C-250 236 -250 236 -252.031 231.234 C-254.691 223.945 -254.611 216.855 -254.602 209.168 C-254.61 207.66 -254.619 206.152 -254.628 204.598 C-254.639 201.413 -254.64 198.229 -254.631 195.044 C-254.625 190.24 -254.672 185.439 -254.723 180.635 C-254.793 163.31 -253.645 148.419 -248 132 C-247.332 129.334 -246.665 126.667 -246 124 C-244.681 120.661 -243.348 117.327 -242 114 C-241.691 112.824 -241.381 111.649 -241.062 110.438 C-239.662 105.907 -237.347 102.108 -235 98 C-234.34 96.35 -233.68 94.7 -233 93 C-231.667 91 -230.333 89 -229 87 C-228.423 85.783 -227.845 84.566 -227.25 83.312 C-224.358 77.769 -220.767 72.975 -217 68 C-215.928 66.536 -214.855 65.071 -213.75 63.562 C-209.701 58.636 -205.342 54.234 -200.77 49.797 C-198.303 47.306 -196.145 44.765 -194 42 C-190.613 38.346 -187.131 35.754 -183 33 C-182.175 32.175 -181.35 31.35 -180.5 30.5 C-177.835 27.835 -175.173 26.035 -172 24 C-162.634 17.634 -162.634 17.634 -159 14 C-156.673 13.312 -154.338 12.649 -152 12 C-149.37 10.761 -146.766 9.466 -144.188 8.125 C-133.852 2.882 -123.606 -0.806 -112.465 -3.949 C-109 -5 -109 -5 -108 -6 C-105.505 -6.353 -103.004 -6.657 -100.5 -6.938 C-96.009 -7.469 -91.727 -8.062 -87.312 -9.062 C-61.02 -14.778 -24.245 -12.122 0 0 Z "  transform="translate(295,714)"/>
<path fill="#009B8D" d="M0 0 C0.884 0.657 1.769 1.315 2.68 1.992 C10.789 9.065 17.498 19.382 18.504 30.193 C18.506 31.629 18.508 33.065 18.51 34.545 C18.52 36.183 18.53 37.82 18.54 39.508 C18.537 41.257 18.534 43.006 18.531 44.809 C18.542 46.615 18.553 48.421 18.564 50.282 C18.61 58.007 18.622 65.731 18.636 73.455 C18.652 79.094 18.685 84.732 18.719 90.371 C18.716 92.134 18.713 93.898 18.71 95.715 C18.72 97.331 18.73 98.946 18.74 100.611 C18.742 102.041 18.744 103.472 18.746 104.946 C18.871 105.995 18.996 107.044 19.125 108.125 C22.62 109.29 25.38 109.264 29.068 109.283 C29.789 109.288 29.789 109.288 33.44 109.314 C35.005 109.321 36.571 109.328 38.184 109.336 C41.492 109.364 44.799 109.393 48.107 109.422 C53.328 109.463 58.548 109.5 63.768 109.526 C68.803 109.554 73.837 109.6 78.871 109.648 C80.418 109.652 81.966 109.655 83.56 109.658 C99.802 109.841 112.5 113.332 125.125 124.125 C132.74 133.316 137.52 143.94 138.688 155.875 C136.92 172.376 130.723 183.194 118.125 194.125 C113.625 196.75 113.625 196.75 110.125 198.125 C109.465 198.455 109.465 198.455 106.125 200.125 C103.569 200.325 101.002 200.409 98.438 200.428 C96.859 200.445 95.281 200.461 93.654 200.478 C91.947 200.487 90.24 200.495 88.48 200.504 C86.727 200.521 84.974 200.538 83.167 200.555 C77.549 200.609 71.931 200.649 66.312 200.688 C60.705 200.731 55.098 200.778 49.49 200.83 C45.998 200.862 42.505 200.889 39.013 200.911 C38.219 200.917 38.219 200.917 34.2 200.951 C33.503 200.956 33.503 200.956 29.977 200.98 C26.291 201.119 22.763 201.531 19.125 202.125 C19.121 203.157 19.118 204.19 19.114 205.253 C19.072 216.009 19.003 226.764 18.917 237.519 C18.887 241.532 18.868 245.544 18.854 249.557 C18.833 255.329 18.786 261.1 18.734 266.871 C18.733 268.662 18.732 270.453 18.731 272.298 C18.551 287.637 18.551 287.637 14.125 295.125 C13.403 296.466 12.681 297.806 11.938 299.188 C8.491 304.013 4.63 307.273 0.125 311.125 C-0.535 312.115 -1.195 313.105 -1.875 314.125 C-4.66 315.477 -4.66 315.477 -7.938 316.75 C-13.801 319.051 -13.801 319.051 -14.875 320.125 C-18.72 320.307 -22.529 320.404 -26.375 320.438 C-27.44 320.467 -28.505 320.496 -29.602 320.525 C-42.378 320.627 -51.422 314.822 -60.699 306.387 C-72.316 294.311 -73.473 280.328 -73.484 264.551 C-73.501 262.791 -73.517 261.031 -73.534 259.217 C-73.583 253.624 -73.604 248.031 -73.625 242.438 C-73.653 238.633 -73.683 234.829 -73.715 231.025 C-73.789 221.725 -73.84 212.425 -73.875 203.125 C-79.108 201.668 -83.747 200.881 -89.174 200.914 C-89.871 200.916 -89.871 200.916 -93.401 200.924 C-94.145 200.931 -94.145 200.931 -97.906 200.965 C-99.452 200.97 -100.998 200.975 -102.59 200.981 C-107.518 200.998 -112.447 201.03 -117.375 201.062 C-122.303 201.09 -127.232 201.115 -132.16 201.134 C-135.223 201.146 -138.286 201.163 -141.349 201.187 C-157.739 201.264 -167.364 198.827 -179.375 187.188 C-188.159 178.414 -191.334 168.342 -192.25 156.125 C-191.145 141.395 -191.145 141.395 -186.875 137.125 C-186.215 135.475 -185.555 133.825 -184.875 132.125 C-175.906 119.312 -165.222 112.909 -149.875 110.125 C-144.111 109.691 -138.365 109.661 -132.586 109.648 C-131.776 109.641 -131.776 109.641 -127.674 109.601 C-122.533 109.554 -117.392 109.526 -112.25 109.5 C-107.073 109.464 -101.896 109.423 -96.718 109.377 C-93.504 109.35 -90.29 109.329 -87.076 109.314 C-85.634 109.304 -84.191 109.293 -82.705 109.283 C-81.431 109.276 -80.157 109.27 -78.844 109.263 C-75.875 109.125 -75.875 109.125 -73.875 108.125 C-73.623 105.124 -73.623 105.124 -73.62 101.042 C-73.613 99.519 -73.606 97.996 -73.599 96.427 C-73.599 95.595 -73.599 95.595 -73.602 91.387 C-73.581 87.89 -73.56 84.393 -73.539 80.896 C-73.517 75.364 -73.5 69.833 -73.494 64.301 C-73.485 58.975 -73.451 53.65 -73.414 48.324 C-73.419 46.683 -73.424 45.042 -73.429 43.351 C-73.328 31.506 -71.857 21.6 -64.938 11.625 C-64.613 11.145 -64.613 11.145 -62.973 8.719 C-60.821 6.058 -58.596 4.184 -55.875 2.125 C-54.844 1.114 -53.812 0.104 -52.75 -0.938 C-39.161 -11.239 -13.354 -10.184 0 0 Z "  transform="translate(2449.875,54.875)"/>
<path fill="#009B8D" d="M0 0 C0.911 -0.006 0.911 -0.006 5.523 -0.037 C7.284 -0.039 9.045 -0.041 10.859 -0.043 C11.664 -0.045 11.664 -0.045 15.733 -0.055 C20.173 0.183 23.982 0.986 28.25 2.188 C30.537 2.572 32.829 2.928 35.125 3.25 C41.034 4.079 41.034 4.079 43.25 5.188 C44.653 5.311 46.055 5.435 47.5 5.562 C52.038 6.16 54.266 7.178 58.25 9.188 C60.343 9.772 62.448 10.311 64.562 10.812 C72.033 12.863 78.421 16.206 85.18 19.941 C88.744 21.908 92.335 23.73 96 25.5 C100.068 27.583 102.79 29.392 106.25 32.188 C107.57 32.847 108.89 33.507 110.25 34.188 C110.611 34.559 110.611 34.559 112.438 36.438 C115.25 39.188 115.25 39.188 119.293 41.75 C124.983 45.493 129.607 50.105 134.375 54.938 C135.23 55.781 136.084 56.624 136.965 57.492 C142.468 63.02 146.891 68.724 151.25 75.188 C152.178 76.116 153.106 77.044 154.062 78 C156.25 80.188 156.25 80.188 158.25 85.188 C159.578 86.858 160.912 88.525 162.25 90.188 C163.284 92.17 164.282 94.172 165.25 96.188 C165.889 97.26 166.529 98.332 167.188 99.438 C169.631 103.879 171.379 108.48 173.25 113.188 C173.745 114.012 173.745 114.012 176.25 118.188 C176.964 120.507 177.625 122.843 178.25 125.188 C181.08 134.018 181.08 134.018 182.25 135.188 C182.75 138.12 183.246 141.054 183.715 143.992 C184.402 148.096 185.323 152.132 186.25 156.188 C186.601 157.961 186.951 159.735 187.312 161.562 C188.25 166.188 188.25 166.188 189.25 169.188 C189.462 175.969 189.436 182.753 189.435 189.537 C189.437 192.91 189.456 196.283 189.475 199.656 C189.478 201.807 189.48 203.958 189.48 206.109 C189.485 208.065 189.489 210.02 189.493 212.034 C189.281 216.53 188.665 219.958 187.25 224.188 C187.049 226.225 186.901 228.268 186.812 230.312 C186.25 236.188 186.25 236.188 183.25 241.188 C182.889 244.518 182.553 247.851 182.25 251.188 C181.59 251.847 180.93 252.507 180.25 253.188 C179.961 254.363 179.672 255.539 179.375 256.75 C178.15 261.583 176.362 265.669 174.25 270.188 C173.863 271.086 173.477 271.984 173.078 272.91 C169.884 280.192 166.158 287.142 162.25 294.062 C161.752 294.954 161.254 295.846 160.74 296.765 C157.693 302.086 154.353 306.643 150.25 311.188 C148.766 313.038 147.287 314.892 145.812 316.75 C142.289 321.085 138.563 324.621 134.25 328.188 C133.528 329.136 132.806 330.085 132.062 331.062 C128.559 334.955 124.612 337.4 120.188 340.16 C117.25 342.188 117.25 342.188 114.719 344.742 C112.184 347.252 109.92 348.652 106.75 350.25 C103.694 351.841 101.137 353.278 98.438 355.438 C95.825 357.527 93.417 358.132 90.25 359.188 C89.074 359.971 87.899 360.755 86.688 361.562 C81.897 364.396 77.438 365.824 72.105 367.293 C69.25 368.188 69.25 368.188 66.25 370.188 C65.58 370.332 65.58 370.332 62.188 371.062 C56.903 372.266 52.236 374.078 47.25 376.188 C46.154 376.64 45.059 377.092 43.93 377.559 C33.663 382.103 24.264 387.727 15.77 395.062 C13.29 397.154 10.744 398.989 8.062 400.812 C3.48 404.026 -0.601 407.44 -4.75 411.188 C-5.441 411.775 -5.441 411.775 -8.938 414.75 C-12.255 417.741 -14.961 420.72 -17.75 424.188 C-20.381 426.957 -23.025 429.41 -26 431.812 C-31.763 436.999 -36.632 442.948 -40.875 449.438 C-42.75 452.188 -42.75 452.188 -45.938 455.312 C-50.779 460.234 -54.697 465.612 -58.75 471.188 C-60.583 473.688 -62.416 476.188 -64.25 478.688 C-65.169 479.943 -66.088 481.199 -67.035 482.492 C-76.959 495.999 -76.959 495.999 -80.867 500.773 C-82.75 503.187 -82.75 503.187 -84.938 507.188 C-87.858 512.38 -91.141 517.136 -94.562 522.004 C-97.499 526.277 -100.091 530.737 -102.75 535.188 C-104.428 537.715 -106.116 540.235 -107.812 542.75 C-111.411 548.105 -114.689 553.503 -117.75 559.188 C-119.417 561.854 -121.083 564.521 -122.75 567.188 C-123.513 568.569 -124.276 569.951 -125.062 571.375 C-127.202 575.205 -129.425 578.909 -131.75 582.625 C-134.119 586.44 -136.237 590.161 -138.25 594.188 C-140.24 598.168 -142.327 601.806 -144.688 605.562 C-147.879 610.66 -150.636 615.828 -153.262 621.234 C-155.287 625.254 -157.586 629.09 -159.879 632.961 C-164.247 640.494 -168.514 648.098 -171.75 656.188 C-172.493 657.363 -173.235 658.539 -174 659.75 C-178.245 666.6 -181.758 673.707 -184.75 681.188 C-185.162 681.837 -185.162 681.837 -187.25 685.125 C-189.75 689.188 -189.75 689.188 -190.668 691.992 C-191.929 695.717 -193.665 698.932 -195.562 702.375 C-198.009 706.884 -200.36 711.372 -202.438 716.062 C-204.639 720.941 -207.141 725.519 -209.75 730.188 C-210.266 731.404 -210.781 732.621 -211.312 733.875 C-212.75 737.188 -212.75 737.188 -214.812 740.25 C-216.801 743.265 -217.651 745.76 -218.75 749.188 C-221.756 756.035 -224.984 762.721 -228.418 769.363 C-229.782 772.254 -230.77 775.148 -231.75 778.188 C-232.715 780.205 -233.718 782.204 -234.75 784.188 C-236.086 786.853 -237.419 789.52 -238.75 792.188 C-246.75 808.188 -246.75 808.188 -248.406 811.402 C-249.75 814.188 -249.75 814.188 -251.188 818.625 C-252.75 823.188 -252.75 823.188 -254.688 826.562 C-256.828 830.325 -258.192 834.133 -259.613 838.211 C-261.594 843.397 -264.197 848.265 -266.75 853.188 C-268.257 856.13 -269.643 858.843 -270.625 862 C-272.161 866.351 -274.512 870.159 -276.75 874.188 C-277.435 876.181 -278.101 878.182 -278.75 880.188 C-281.834 887.984 -285.208 895.122 -289.75 902.188 C-290.456 904.174 -291.119 906.176 -291.75 908.188 C-293.833 913.029 -296.045 917.803 -298.438 922.5 C-299.826 925.344 -300.768 928.181 -301.75 931.188 C-303.325 935.162 -305.08 938.772 -307.188 942.5 C-309.75 947.188 -309.75 947.188 -311.562 951.75 C-314.006 957.825 -316.898 963.571 -319.859 969.406 C-321.315 972.318 -322.678 975.276 -324 978.25 C-325.75 982.188 -325.75 982.188 -327.688 985.438 C-330.087 989.8 -331.784 994.252 -333.523 998.91 C-334.594 1001.771 -335.729 1004.606 -336.875 1007.438 C-338.67 1011.985 -340.222 1016.544 -341.75 1021.188 C-342.764 1024.127 -343.785 1027.065 -344.812 1030 C-345.066 1030.725 -345.066 1030.725 -346.348 1034.395 C-347.75 1038.187 -347.75 1038.187 -349.75 1042.188 C-349.802 1042.693 -349.802 1042.693 -350.062 1045.25 C-350.841 1049.71 -352.6 1053.336 -354.547 1057.398 C-356.192 1061.213 -356.926 1065.129 -357.75 1069.188 C-358.41 1070.178 -359.07 1071.168 -359.75 1072.188 C-360.431 1074.183 -361.094 1076.184 -361.75 1078.188 C-376.604 1116.042 -376.604 1116.042 -389.75 1129.188 C-390.121 1130.219 -390.492 1131.25 -390.875 1132.312 C-393.21 1137.138 -396.371 1140.044 -400.215 1143.723 C-402.75 1146.188 -402.75 1146.188 -406.062 1150.062 C-415.095 1160.166 -425.264 1169.03 -436.75 1176.188 C-439.567 1178.237 -442.359 1180.316 -445.137 1182.418 C-447.75 1184.188 -447.75 1184.188 -452.75 1186.188 C-453.864 1186.848 -454.977 1187.507 -456.125 1188.188 C-459.75 1190.188 -459.75 1190.188 -463.062 1191.125 C-466.75 1192.188 -466.75 1192.188 -471.562 1194.688 C-476.696 1197.161 -481.163 1198.243 -486.75 1199.188 C-487.08 1199.517 -487.41 1199.848 -487.75 1200.188 C-489.318 1200.497 -490.885 1200.806 -492.5 1201.125 C-497.75 1202.188 -497.75 1202.188 -502.75 1204.188 C-505.307 1204.429 -507.871 1204.589 -510.438 1204.688 C-514.955 1204.863 -519.028 1205.247 -523.457 1206.203 C-529.644 1207.354 -535.477 1207.481 -541.75 1207.438 C-542.861 1207.445 -543.972 1207.453 -545.117 1207.461 C-551.925 1207.445 -558.07 1206.636 -564.75 1205.188 C-567.101 1205.034 -569.457 1204.926 -571.812 1204.875 C-579.261 1204.467 -585.843 1202.634 -592.93 1200.383 C-596.75 1199.187 -596.75 1199.187 -601.75 1198.125 C-607.168 1196.855 -612.746 1195.192 -616.75 1191.188 C-617.788 1190.891 -618.825 1190.595 -619.895 1190.289 C-631.491 1186.976 -641.989 1180.111 -651.75 1173.188 C-652.975 1172.346 -654.199 1171.504 -655.461 1170.637 C-665.706 1163.508 -665.706 1163.508 -669.75 1158.188 C-670.946 1157.156 -672.142 1156.125 -673.375 1155.062 C-687.229 1142.792 -687.229 1142.792 -688.75 1135.188 C-689.74 1134.858 -690.73 1134.527 -691.75 1134.188 C-693.574 1131.754 -693.574 1131.754 -695.438 1128.75 C-696.06 1127.761 -696.683 1126.773 -697.324 1125.754 C-698.75 1123.188 -698.75 1123.188 -698.75 1121.188 C-699.74 1120.858 -700.73 1120.527 -701.75 1120.188 C-702.41 1118.537 -703.07 1116.888 -703.75 1115.188 C-704.41 1114.053 -705.07 1112.919 -705.75 1111.75 C-707.547 1108.549 -708.62 1105.654 -709.75 1102.188 C-711.368 1099.491 -713.006 1096.804 -714.75 1094.188 C-715.447 1091.863 -716.108 1089.528 -716.75 1087.188 C-719.467 1078.471 -719.467 1078.471 -721.75 1076.188 C-722.246 1073.507 -722.737 1070.826 -723.184 1068.137 C-723.976 1064.009 -725.353 1060.146 -726.75 1056.188 C-727.058 1055.097 -727.366 1054.006 -727.684 1052.883 C-728.765 1049.136 -730.001 1045.484 -731.312 1041.812 C-731.747 1040.588 -732.181 1039.363 -732.629 1038.102 C-733.75 1035.188 -733.75 1035.188 -734.75 1034.188 C-734.997 1032.868 -735.245 1031.547 -735.5 1030.188 C-736.84 1024.829 -739.027 1020.97 -741.75 1016.188 C-742.759 1013.191 -743.758 1010.19 -744.75 1007.188 C-749.842 994.563 -755.526 982.293 -761.75 970.188 C-762.596 968.455 -763.441 966.722 -764.312 964.938 C-766.659 960.364 -769.175 955.956 -771.793 951.535 C-774.023 947.721 -776.167 943.863 -778.312 940 C-781.562 934.21 -784.972 928.653 -788.75 923.188 C-790.065 921.21 -791.377 919.231 -792.688 917.25 C-796.297 911.839 -799.979 906.488 -803.75 901.188 C-804.075 900.728 -804.075 900.728 -805.719 898.402 C-808.773 894.133 -811.847 890.077 -815.312 886.125 C-817.929 883.128 -820.145 880.265 -822.375 877 C-825.055 873.178 -827.458 870.395 -830.75 867.188 C-835.81 861.809 -840.692 856.324 -845.312 850.562 C-852.653 841.49 -861.151 833.968 -870.012 826.402 C-871.204 825.383 -872.396 824.363 -873.625 823.312 C-874.835 822.279 -876.046 821.245 -877.293 820.18 C-880.222 817.644 -883.09 815.063 -885.938 812.438 C-890.174 808.579 -894.682 805.268 -899.355 801.961 C-902.091 799.935 -904.346 797.592 -906.75 795.188 C-909.729 793.156 -912.732 791.161 -915.75 789.188 C-920.355 785.911 -924.909 782.563 -929.438 779.18 C-937.38 773.292 -945.668 768.092 -954.25 763.188 C-957.343 761.42 -960.354 759.573 -963.375 757.688 C-969.316 754.022 -975.327 750.485 -981.375 747 C-983.079 746.016 -984.783 745.033 -986.539 744.02 C-991.864 741.126 -997.216 738.651 -1002.75 736.188 C-1004.379 735.342 -1006.009 734.496 -1007.688 733.625 C-1012.416 731.348 -1017.006 729.678 -1021.988 728.09 C-1026.363 726.66 -1030.478 724.86 -1034.543 722.711 C-1037.751 721.187 -1040.753 720.261 -1044.188 719.375 C-1050.775 717.568 -1056.984 715.198 -1063.277 712.555 C-1066.731 711.195 -1070.177 710.184 -1073.75 709.188 C-1075.565 708.507 -1077.38 707.826 -1079.25 707.125 C-1084.75 705.188 -1084.75 705.188 -1088.188 704.812 C-1092.9 703.986 -1096.589 701.905 -1100.785 699.66 C-1103.75 698.188 -1103.75 698.188 -1106.664 697.234 C-1110.373 695.976 -1113.621 694.244 -1117.062 692.375 C-1117.721 692.018 -1117.721 692.018 -1121.051 690.211 C-1122.272 689.543 -1123.492 688.875 -1124.75 688.188 C-1126.4 687.301 -1128.05 686.414 -1129.75 685.5 C-1133.611 683.268 -1137.138 680.796 -1140.75 678.188 C-1141.822 677.61 -1142.895 677.033 -1144 676.438 C-1159.033 667.418 -1171.987 654.154 -1182.453 640.238 C-1183.906 638.308 -1185.387 636.397 -1186.902 634.516 C-1189.498 631.245 -1191.587 627.759 -1193.75 624.188 C-1194.276 623.334 -1194.802 622.481 -1195.344 621.602 C-1201.933 610.67 -1207.362 599.169 -1211.75 587.188 C-1213.75 582.188 -1213.75 582.188 -1214.75 581.188 C-1215.326 578.093 -1215.78 574.987 -1216.25 571.875 C-1216.75 569.188 -1216.75 569.188 -1217.75 568.188 C-1218.289 565.57 -1218.781 562.943 -1219.25 560.312 C-1220.65 552.489 -1220.65 552.489 -1221.75 549.188 C-1221.885 545.284 -1221.963 541.4 -1221.988 537.496 C-1221.992 536.909 -1221.992 536.909 -1222.013 533.939 C-1222.027 531.443 -1222.037 528.947 -1222.045 526.451 C-1222.057 523.927 -1222.077 521.403 -1222.107 518.879 C-1222.302 502.309 -1222.004 486.822 -1215.75 471.188 C-1215.668 470.012 -1215.585 468.836 -1215.5 467.625 C-1214.627 462.457 -1212.694 458.696 -1210.223 454.117 C-1208.75 451.188 -1207.757 448.302 -1206.75 445.188 C-1205.433 442.513 -1204.1 439.846 -1202.75 437.188 C-1202.09 435.538 -1201.43 433.888 -1200.75 432.188 C-1199.054 429.709 -1197.354 427.234 -1195.605 424.793 C-1193.958 422.48 -1192.38 420.118 -1190.812 417.75 C-1185.305 409.545 -1179.891 402.069 -1172.75 395.188 C-1171.657 393.909 -1170.564 392.63 -1169.438 391.312 C-1162.49 383.541 -1154.698 376.556 -1145.75 371.188 C-1144.678 370.259 -1143.605 369.331 -1142.5 368.375 C-1135.797 362.677 -1128.45 358.388 -1120.75 354.188 C-1119.617 353.521 -1118.484 352.855 -1117.316 352.168 C-1116.098 351.453 -1114.88 350.737 -1113.625 350 C-1112.488 349.326 -1111.351 348.652 -1110.18 347.957 C-1106.731 346.178 -1103.486 345.189 -1099.75 344.188 C-1098.492 343.527 -1097.234 342.868 -1095.938 342.188 C-1091.191 339.921 -1086.919 339.149 -1081.75 338.188 C-1069.02 334.823 -1069.02 334.823 -1065.75 333.188 C-1062.482 332.978 -1059.21 332.82 -1055.938 332.688 C-1050.7 332.475 -1045.894 332.216 -1040.75 331.188 C-1021.449 330.264 -1001.139 331.099 -982.652 336.969 C-978.75 338.188 -978.75 338.188 -973.941 339.219 C-969.75 340.188 -969.75 340.188 -966.75 342.188 C-965.884 342.476 -965.017 342.765 -964.125 343.062 C-958.492 344.94 -953.205 347.349 -948.062 350.312 C-944.75 352.188 -944.75 352.188 -941.961 353.047 C-923.444 359.625 -907.255 376.528 -893.562 390.062 C-892.712 390.884 -891.862 391.705 -890.986 392.551 C-885.947 397.539 -881.936 402.538 -878.327 408.649 C-876.653 411.344 -874.735 413.716 -872.75 416.188 C-869.584 421.766 -866.69 427.487 -863.75 433.188 C-863.14 434.331 -862.531 435.474 -861.902 436.652 C-858.852 442.476 -856.991 447.673 -855.75 454.188 C-855.09 455.178 -854.43 456.168 -853.75 457.188 C-851.341 463.411 -850.143 469.418 -849.211 475.98 C-848.334 482.085 -847.187 487.913 -845.188 493.75 C-843.719 498.283 -843.251 502.467 -842.75 507.188 C-842.09 508.178 -841.43 509.168 -840.75 510.188 C-840.083 513.188 -839.417 516.188 -838.75 519.188 C-836.59 526.449 -833.847 533.272 -830.75 540.188 C-830.42 541.363 -830.09 542.539 -829.75 543.75 C-828.544 547.895 -826.748 551.354 -824.75 555.188 C-823.622 557.436 -822.497 559.686 -821.375 561.938 C-820.77 563.144 -820.166 564.351 -819.543 565.594 C-818.412 567.86 -817.289 570.131 -816.176 572.406 C-813 578.875 -809.553 585.056 -805.75 591.188 C-805.477 591.63 -805.477 591.63 -804.098 593.867 C-798.004 603.622 -791.357 612.556 -783.75 621.188 C-783.131 622.157 -782.513 623.126 -781.875 624.125 C-778.713 628.682 -774.73 632.344 -770.75 636.188 C-766.839 640.008 -763.308 644.036 -759.75 648.188 C-758.09 649.861 -756.423 651.527 -754.75 653.188 C-754.39 653.565 -754.39 653.565 -752.566 655.477 C-746.843 661.408 -740.729 666.51 -734.195 671.527 C-731.132 673.893 -728.153 676.327 -725.188 678.812 C-718.2 684.566 -710.861 690.132 -702.75 694.188 C-702.75 694.847 -702.75 695.508 -702.75 696.188 C-700.76 696.884 -698.758 697.545 -696.75 698.188 C-694.064 699.786 -691.378 701.385 -688.695 702.988 C-672.655 711.93 -655.09 720.515 -637.5 725.75 C-632.75 727.188 -632.75 727.188 -628.75 729.188 C-626.088 729.873 -623.422 730.541 -620.75 731.188 C-620.09 731.517 -619.43 731.847 -618.75 732.188 C-617.162 732.332 -615.574 732.476 -613.938 732.625 C-608.75 733.188 -608.75 733.188 -603.75 735.188 C-601.53 735.594 -599.299 735.947 -597.062 736.25 C-590.95 737.088 -590.95 737.088 -588.75 738.188 C-585.066 738.636 -581.45 738.961 -577.75 739.188 C-576.522 739.266 -575.293 739.345 -574.027 739.426 C-563.818 739.778 -555.253 737.918 -545.75 734.188 C-545.42 733.858 -545.09 733.528 -544.75 733.188 C-543.409 732.919 -542.069 732.651 -540.688 732.375 C-535.771 731.192 -532.221 729.514 -527.75 727.188 C-526.167 726.383 -524.584 725.579 -522.953 724.75 C-521.319 723.904 -519.684 723.059 -518 722.188 C-516.355 721.342 -514.71 720.496 -513.016 719.625 C-508.75 717.188 -508.75 717.188 -504.75 713.188 C-503.822 712.734 -502.894 712.28 -501.938 711.812 C-497.949 709.779 -495.131 707.146 -491.75 704.188 C-489.705 702.645 -487.66 701.103 -485.613 699.562 C-477.213 692.98 -469.725 685.581 -462.235 678.008 C-459.932 675.682 -457.616 673.37 -455.299 671.059 C-447.682 663.426 -440.386 655.702 -433.75 647.188 C-431.944 645.057 -430.133 642.931 -428.312 640.812 C-423.678 635.357 -419.268 629.764 -414.941 624.062 C-413.574 622.268 -412.185 620.489 -410.766 618.734 C-408.373 615.712 -406.16 612.587 -403.938 609.438 C-401.035 605.349 -398.113 601.306 -395 597.375 C-391.688 593.107 -388.714 588.701 -385.75 584.188 C-384.76 582.867 -383.77 581.548 -382.75 580.188 C-382.09 579.012 -381.43 577.836 -380.75 576.625 C-378.75 573.188 -378.75 573.188 -375.75 570.188 C-374.151 567.522 -372.563 564.848 -371.062 562.125 C-366.399 554.184 -361.099 546.677 -355.75 539.188 C-355.255 538.362 -355.255 538.362 -352.75 534.188 C-351.629 532.435 -350.504 530.685 -349.375 528.938 C-347.162 525.479 -345.114 522.037 -343.125 518.438 C-340.75 514.187 -340.75 514.187 -338.062 510.438 C-335.75 507.188 -335.75 507.188 -333.75 502.188 C-332.112 499.503 -330.441 496.839 -328.75 494.188 C-322.332 483.59 -315.954 472.955 -309.938 462.125 C-308.395 459.348 -306.76 456.622 -305.062 453.938 C-302.75 450.187 -302.75 450.187 -300.75 445.188 C-299.092 442.516 -297.423 439.85 -295.75 437.188 C-294.282 434.507 -292.815 431.825 -291.367 429.133 C-289.099 425.001 -286.686 420.959 -284.266 416.914 C-282.75 414.187 -282.75 414.187 -280.75 409.188 C-279.426 406.733 -278.068 404.298 -276.688 401.875 C-275.89 400.467 -275.092 399.06 -274.27 397.609 C-272.601 394.682 -270.932 391.755 -269.262 388.828 C-268.868 388.135 -268.868 388.135 -266.875 384.625 C-266.156 383.366 -265.436 382.106 -264.695 380.809 C-262.828 377.333 -261.288 373.817 -259.75 370.188 C-258.436 368.175 -257.103 366.174 -255.75 364.188 C-254.733 362.196 -253.734 360.196 -252.75 358.188 C-252.14 357.133 -251.531 356.079 -250.902 354.992 C-248.722 351.139 -246.757 347.227 -244.812 343.25 C-242.054 337.682 -239.087 332.432 -235.75 327.188 C-234.745 324.856 -233.745 322.523 -232.75 320.188 C-232.069 319.197 -231.389 318.207 -230.688 317.188 C-228.544 313.869 -227.781 310.99 -226.75 307.188 C-226.09 305.744 -225.43 304.3 -224.75 302.812 C-222.771 298.236 -221.751 294.059 -220.75 289.188 C-219.358 284.257 -218.041 279.77 -215.75 275.188 C-215.482 273.764 -215.214 272.341 -214.938 270.875 C-213.972 266.253 -212.782 262.13 -211.25 257.688 C-209.259 251.884 -207.849 246.233 -206.75 240.188 C-204.14 228.967 -204.14 228.967 -202.75 226.188 C-202.626 224.641 -202.503 223.094 -202.375 221.5 C-201.8 216.616 -200.814 213.564 -198.75 209.188 C-198.063 206.86 -197.392 204.528 -196.75 202.188 C-196.42 201.528 -196.09 200.868 -195.75 200.188 C-195.525 197.171 -195.303 194.153 -195.129 191.133 C-194.75 188.188 -194.75 188.188 -192.75 184.188 C-190.351 175.904 -188.623 167.77 -187.75 159.188 C-187.09 158.197 -186.43 157.207 -185.75 156.188 C-185.038 153.198 -184.381 150.195 -183.75 147.188 C-182.097 139.732 -179.993 133.138 -176.75 126.188 C-175.828 123.794 -174.912 121.398 -174 119 C-170.939 111.275 -166.991 104.312 -162.75 97.188 C-162.317 96.383 -162.317 96.383 -160.125 92.312 C-156.904 86.719 -153.316 81.753 -148.75 77.188 C-148.243 76.19 -147.737 75.192 -147.215 74.164 C-143.698 68.49 -139.078 64.201 -134.312 59.562 C-133.842 59.098 -133.842 59.098 -131.459 56.75 C-129.703 55.02 -127.945 53.294 -126.182 51.572 C-124.493 49.916 -122.817 48.248 -121.149 46.571 C-107.903 33.413 -90.992 22.422 -73.367 16.23 C-70.75 15.187 -70.75 15.187 -68.75 13.188 C-66.759 12.493 -64.758 11.83 -62.75 11.188 C-60.828 10.345 -58.912 9.49 -57 8.625 C-51.555 6.309 -46.672 5.599 -40.75 5.188 C-39.43 4.527 -38.11 3.868 -36.75 3.188 C-34.594 2.771 -32.425 2.422 -30.25 2.125 C-19.975 0.699 -10.453 0.004 0 0 Z "  transform="translate(2138.75,384.8125)"/>
</svg>